<svg width="827" height="827" viewBox="0 0 827 827" fill="none" xmlns="http://www.w3.org/2000/svg">
<path d="M413.488 583.038C507.126 583.038 583.038 507.126 583.038 413.488C583.038 319.848 507.126 243.938 413.488 243.938C319.848 243.938 243.938 319.848 243.938 413.488C243.938 507.126 319.848 583.038 413.488 583.038Z" stroke="#E58527" stroke-width="63.5813" stroke-linecap="round" stroke-linejoin="round"/>
<path d="M32 583.038V243.938C32 126.888 126.888 32 243.938 32H583.038C700.087 32 794.976 126.888 794.976 243.938V583.038C794.976 700.087 700.087 794.976 583.038 794.976H243.938C126.888 794.976 32 700.087 32 583.038Z" stroke="#E58527" stroke-width="63.5813"/>
<path d="M646.619 180.785L647.043 180.314" stroke="#E58527" stroke-width="63.5813" stroke-linecap="round" stroke-linejoin="round"/>
</svg>
