<svg width="537" height="537" viewBox="0 0 537 537" fill="none" xmlns="http://www.w3.org/2000/svg">
<circle cx="268.5" cy="268.5" r="268.5" fill="#E58527"/>
<path d="M320.085 419.609H218.544C210.436 419.609 200.116 418.688 193.297 411.685C186.663 404.867 186.847 396.389 187.031 390.677V374.275C140.591 343.315 110 289.504 110 238.273C110 189.806 131.746 144.471 169.524 114.064C207.303 83.6571 256.875 72.2315 305.342 82.92C351.414 93.0557 391.219 123.831 411.859 165.296C451.849 245.828 413.333 332.995 351.782 374.46V388.281C351.966 393.625 352.151 403.392 344.595 411.132C338.882 416.661 330.774 419.609 320.085 419.609ZM214.49 391.782C215.411 391.782 216.701 391.967 218.36 391.967H320.085C321.928 391.967 323.218 391.782 323.955 391.598C323.955 391.045 323.955 390.308 323.955 389.755V366.535C323.955 361.744 326.535 357.137 330.589 354.741C385.138 321.754 421.258 246.381 386.796 177.274C369.842 143.181 337.039 117.934 299.076 109.641C258.902 100.796 217.807 110.194 186.478 135.441C155.15 160.688 137.274 198.098 137.274 238.273C137.274 289.504 172.657 333.732 207.671 354.925C211.91 357.505 214.306 361.928 214.306 366.72V391.598C214.49 391.598 214.49 391.598 214.49 391.782Z" fill="white"/>
<path d="M333.542 474.898C332.252 474.898 330.962 474.714 329.672 474.345C289.866 462.919 248.033 462.919 208.227 474.345C200.855 476.372 193.3 472.134 191.088 464.762C188.877 457.391 193.3 449.835 200.671 447.624C245.269 434.908 292.631 434.908 337.228 447.624C344.599 449.651 348.838 457.391 346.81 464.762C345.152 471.028 339.623 474.898 333.542 474.898Z" fill="white"/>
</svg>
