<svg width="162" height="162" viewBox="0 0 162 162" fill="none" xmlns="http://www.w3.org/2000/svg">
<path d="M76.976 153.952C34.5453 153.952 0 119.407 0 76.976C0 34.5453 34.5453 0 76.976 0C119.407 0 153.952 34.5453 153.952 76.976C153.952 119.407 119.407 153.952 76.976 153.952ZM76.976 11.2648C40.7034 11.2648 11.2648 40.7785 11.2648 76.976C11.2648 113.173 40.7034 142.687 76.976 142.687C113.249 142.687 142.687 113.173 142.687 76.976C142.687 40.7785 113.249 11.2648 76.976 11.2648Z" fill="#878787"/>
<path d="M155.833 161.461C154.406 161.461 152.979 160.936 151.852 159.809L136.833 144.789C134.655 142.612 134.655 139.007 136.833 136.829C139.011 134.651 142.615 134.651 144.793 136.829L159.813 151.849C161.991 154.027 161.991 157.631 159.813 159.809C158.686 160.936 157.26 161.461 155.833 161.461Z" fill="#878787"/>
</svg>
