<svg width="537" height="537" viewBox="0 0 537 537" fill="none" xmlns="http://www.w3.org/2000/svg">
<circle cx="268.5" cy="268.5" r="268.5" fill="#E58527"/>
<path d="M419 174.062V362.188C419 437.438 400.188 456.25 324.938 456.25H212.062C136.812 456.25 118 437.438 118 362.188V174.062C118 98.8125 136.812 80 212.062 80H324.938C400.188 80 419 98.8125 419 174.062Z" stroke="white" stroke-width="19" stroke-linecap="round" stroke-linejoin="round"/>
<path d="M306.125 145.844H230.875" stroke="white" stroke-width="19" stroke-linecap="round" stroke-linejoin="round"/>
<path d="M268.494 401.694C284.599 401.694 297.655 388.638 297.655 372.535C297.655 356.431 284.599 343.375 268.494 343.375C252.39 343.375 239.335 356.431 239.335 372.535C239.335 388.638 252.39 401.694 268.494 401.694Z" stroke="white" stroke-width="19" stroke-linecap="round" stroke-linejoin="round"/>
</svg>
