<svg width="537" height="537" viewBox="0 0 537 537" fill="none" xmlns="http://www.w3.org/2000/svg">
<circle cx="268.5" cy="268.5" r="268.5" fill="#E58527"/>
<path d="M371.528 186.424C370.263 186.243 368.998 186.243 367.733 186.424C339.728 185.521 317.504 162.574 317.504 134.388C317.504 105.66 340.812 82.1719 369.721 82.1719C398.449 82.1719 421.937 105.48 421.937 134.388C421.757 162.574 399.533 185.521 371.528 186.424Z" fill="white"/>
<path d="M430.474 311.643C410.238 325.194 381.871 330.253 355.673 326.82C362.539 312.004 366.152 295.562 366.333 278.217C366.333 260.149 362.358 242.984 354.77 227.988C381.51 224.374 409.877 229.433 430.294 242.984C458.841 261.775 458.841 292.671 430.474 311.643Z" fill="white"/>
<path d="M171.174 186.424C172.439 186.243 173.703 186.243 174.968 186.424C202.973 185.521 225.197 162.574 225.197 134.388C225.197 105.48 201.889 82.1719 172.981 82.1719C144.253 82.1719 120.945 105.48 120.945 134.388C120.945 162.574 143.168 185.521 171.174 186.424Z" fill="white"/>
<path d="M173.178 278.22C173.178 295.746 176.972 312.369 183.838 327.365C158.362 330.075 131.802 324.655 112.289 311.827C83.7416 292.855 83.7416 261.959 112.289 242.988C131.622 229.979 158.904 224.739 184.561 227.63C177.153 242.807 173.178 259.972 173.178 278.22Z" fill="white"/>
<path d="M273.811 332.774C272.366 332.594 270.74 332.594 269.113 332.774C235.868 331.69 209.308 304.408 209.308 270.801C209.489 236.472 237.133 208.647 271.643 208.647C305.972 208.647 333.797 236.472 333.797 270.801C333.616 304.408 307.237 331.69 273.811 332.774Z" fill="white"/>
<path d="M215.09 370.187C187.807 388.435 187.807 418.428 215.09 436.496C246.167 457.274 297.119 457.274 328.196 436.496C355.478 418.247 355.478 388.255 328.196 370.187C297.3 349.408 246.348 349.408 215.09 370.187Z" fill="white"/>
</svg>
