<svg width="816" height="676" viewBox="0 0 816 676" fill="none" xmlns="http://www.w3.org/2000/svg">
<path d="M789.976 27.3489C789.976 27.3489 719.994 68.6921 681.078 80.4104C660.19 56.3943 632.432 39.3723 601.555 31.6465C570.679 23.921 538.176 25.8642 508.441 37.2138C478.706 48.5634 453.171 68.7715 435.296 95.1049C417.418 121.439 408.061 152.627 408.488 184.453V219.133C347.54 220.713 287.149 207.196 232.692 179.786C178.234 152.375 131.4 111.922 96.3614 62.0296C96.3614 62.0296 -42.3614 374.157 269.765 512.88C198.341 561.36 113.257 585.672 27 582.242C339.126 755.645 720.614 582.242 720.614 183.412C720.583 173.752 719.654 164.115 717.84 154.627C753.235 119.721 789.976 27.3489 789.976 27.3489Z" stroke="#E58527" stroke-width="52.0211" stroke-linecap="round" stroke-linejoin="round"/>
</svg>
